# xmcd
#
# Track frame offsets: 
#        150
#        17528
#        39713
#        62062
#        77425
#        92608
#        105358
#        120265
#        121717
#        136349
#        157510
#        177025
#        200828
#        229825
#
# Disc length: 3278 seconds
#
# Revision: 2
# Processed by: cddbd v1.5.2PL0 Copyright (c) Steve Scherf et al.
# Submitted via: ExactAudioCopy v0.99pb1
#
DISCID=9b0ccc0e
DTITLE=貴族唱片股份有限公司 - 2006台北捐血典藏系列3[弦樂四重奏輯]
DYEAR=2006
DGENRE=Classical
TTITLE0=Pachelvis_帕海艾維斯
TTITLE1=Deux Guitars_Two Guitars_兩把吉他
TTITLE2=Zap Padidoo_齊.帕蒂多
TTITLE3=Sunshine_陽光
TTITLE4=A Lighter Shade of Bach_巴哈的光影
TTITLE5=Danse Hongroise_Hungarian Dance_匈牙利舞蹈
TTITLE6=Moyen-Age_中世紀
TTITLE7=Cauchemars_夢魘
TTITLE8=Nirvaldi_涅瓦第
TTITLE9=Bedrich and Carlos_貝德李奇&卡洛斯
TTITLE10=Night Fall_夜幕低垂
TTITLE11=Disco Molto_非常迪斯可
TTITLE12=Sweet Madamenblen_甜蜜藍衣女士
TTITLE13=GigaUdons_奇高登斯
EXTD=
EXTT0=
EXTT1=
EXTT2=
EXTT3=
EXTT4=
EXTT5=
EXTT6=
EXTT7=
EXTT8=
EXTT9=
EXTT10=
EXTT11=
EXTT12=
EXTT13=
PLAYORDER=
